<svg width="33" height="43" viewBox="0 0 33 43" fill="none" xmlns="http://www.w3.org/2000/svg">
<path d="M29.1176 0H9.70588C8.67622 0 7.68873 0.41185 6.96064 1.14495C6.23256 1.87804 5.82353 2.87234 5.82353 3.90909V9.77273H9.70588V5.86364H29.1176V37.1364H9.70588V33.2273H5.82353V39.0909C5.82353 40.1277 6.23256 41.122 6.96064 41.8551C7.68873 42.5882 8.67622 43 9.70588 43H29.1176C30.1473 43 31.1348 42.5882 31.8629 41.8551C32.591 41.122 33 40.1277 33 39.0909V3.90909C33 2.87234 32.591 1.87804 31.8629 1.14495C31.1348 0.41185 30.1473 0 29.1176 0ZM13.2 19.5455V16.6136C13.2 13.8773 10.4824 11.7273 7.76471 11.7273C5.04706 11.7273 2.32941 13.8773 2.32941 16.6136V19.5455C1.16471 19.5455 0 20.7182 0 21.8909V28.7318C0 30.1 1.16471 31.2727 2.32941 31.2727H13.0059C14.3647 31.2727 15.5294 30.1 15.5294 28.9273V22.0864C15.5294 20.7182 14.3647 19.5455 13.2 19.5455ZM10.6765 19.5455H4.85294V16.6136C4.85294 15.05 6.21176 14.0727 7.76471 14.0727C9.31765 14.0727 10.6765 15.05 10.6765 16.6136V19.5455Z" fill="white"/>
</svg>
