<svg width="35" height="35" viewBox="0 0 35 35" fill="none" xmlns="http://www.w3.org/2000/svg">
<path d="M31.1111 0H3.88889C1.75 0 0 1.75 0 3.88889V31.1111C0 33.25 1.75 35 3.88889 35H31.1111C33.25 35 35 33.25 35 31.1111V3.88889C35 1.75 33.25 0 31.1111 0ZM7.77778 7.77778H11.6667V11.6667H7.77778V7.77778ZM7.77778 15.5556H11.6667V19.4444H7.77778V15.5556ZM7.77778 23.3333H11.6667V27.2222H7.77778V23.3333ZM27.2222 27.2222H15.5556V23.3333H27.2222V27.2222ZM27.2222 19.4444H15.5556V15.5556H27.2222V19.4444ZM27.2222 11.6667H15.5556V7.77778H27.2222V11.6667Z" fill="#7DA0C4" fill-opacity="0.67"/>
</svg>
