<svg width="132" height="33" viewBox="0 0 132 33" fill="none" xmlns="http://www.w3.org/2000/svg">
<path d="M18.5255 3.05176e-05H3.10044C2.2838 0.00508724 1.50205 0.331738 0.924593 0.909199C0.347133 1.48666 0.0204818 2.26841 0.0154251 3.08505V5.14815C0.0154251 5.3435 0.0930254 5.53084 0.231155 5.66897C0.369284 5.8071 0.556628 5.8847 0.751973 5.8847C0.947317 5.8847 1.13466 5.8071 1.27279 5.66897C1.41092 5.53084 1.48852 5.3435 1.48852 5.14815V3.08505C1.49353 2.65909 1.66496 2.252 1.96618 1.95078C2.26739 1.64957 2.67449 1.47813 3.10044 1.47313H18.5255C18.9521 1.47713 19.3602 1.64812 19.6623 1.94944C19.9643 2.25077 20.1363 2.65843 20.1413 3.08505V29.755C20.1413 30.1846 19.9714 30.5968 19.6688 30.9016C19.3661 31.2065 18.9551 31.3793 18.5255 31.3824H3.10044C2.66915 31.3813 2.25582 31.2096 1.95086 30.9046C1.64589 30.5996 1.47411 30.1863 1.4731 29.755V21.3946C1.4731 21.1993 1.39549 21.0119 1.25737 20.8738C1.11924 20.7357 0.931892 20.6581 0.736548 20.6581C0.541203 20.6581 0.353859 20.7357 0.21573 20.8738C0.0776003 21.0119 0 21.1993 0 21.3946V29.755C0.00605458 30.5713 0.333026 31.3525 0.910272 31.9298C1.48752 32.507 2.26869 32.834 3.08502 32.84H18.5255C19.3418 32.834 20.123 32.507 20.7003 31.9298C21.2775 31.3525 21.6045 30.5713 21.6105 29.755V3.08505C21.6055 2.26841 21.2788 1.48666 20.7014 0.909199C20.1239 0.331738 19.3422 0.00508724 18.5255 3.05176e-05Z" fill="#F7F7F7"/>
<path d="M1.61609 19.3585H10.3583C10.5694 19.36 10.7787 19.3197 10.9742 19.24C11.1697 19.1602 11.3475 19.0426 11.4974 18.8938C11.6472 18.7451 11.7661 18.5681 11.8473 18.3732C11.9284 18.1783 11.9702 17.9692 11.9702 17.7581V10.0263C11.9702 9.60184 11.8016 9.19479 11.5014 8.89466C11.2013 8.59454 10.7943 8.42593 10.3698 8.42593H9.44432V6.17001C9.4433 5.85363 9.3169 5.55055 9.09282 5.3272C8.86874 5.10384 8.56526 4.97842 8.24888 4.97842H3.72547C3.40909 4.97842 3.10561 5.10384 2.88153 5.3272C2.65745 5.55055 2.53105 5.85363 2.53003 6.17001V8.44521H1.61609C1.19497 8.44518 0.790812 8.61114 0.491236 8.90711C0.19166 9.20307 0.0208149 9.60519 0.0157412 10.0263V17.7388C0.0131894 17.9506 0.0526998 18.1608 0.131982 18.3572C0.211264 18.5536 0.32874 18.7323 0.477601 18.8829C0.626463 19.0336 0.803747 19.1532 0.999178 19.2348C1.19461 19.3164 1.4043 19.3585 1.61609 19.3585ZM4.00698 6.43995H7.97123V8.43364H4.00698V6.43995ZM1.48884 10.0263C1.48884 9.99253 1.50224 9.96016 1.52611 9.9363C1.54997 9.91243 1.58234 9.89902 1.61609 9.89902H10.3583C10.392 9.89902 10.4244 9.91243 10.4482 9.9363C10.4721 9.96016 10.4855 9.99253 10.4855 10.0263V17.7388C10.4855 17.7726 10.4721 17.8049 10.4482 17.8288C10.4244 17.8527 10.392 17.8661 10.3583 17.8661H1.61609C1.58234 17.8661 1.54997 17.8527 1.52611 17.8288C1.50224 17.8049 1.48884 17.7726 1.48884 17.7388V10.0263Z" fill="#F7F7F7"/>
<path d="M4.25781 26.8165C4.25781 27.0119 4.33541 27.1992 4.47354 27.3374C4.61167 27.4755 4.79902 27.5531 4.99436 27.5531H16.6557C16.8511 27.5531 17.0384 27.4755 17.1765 27.3374C17.3147 27.1992 17.3923 27.0119 17.3923 26.8165C17.3923 26.6212 17.3147 26.4338 17.1765 26.2957C17.0384 26.1576 16.8511 26.08 16.6557 26.08H4.97508C4.78341 26.086 4.60155 26.1661 4.46777 26.3035C4.33398 26.4409 4.25872 26.6248 4.25781 26.8165Z" fill="#F7F7F7"/>
<path d="M30.0325 14.8698V11.0714H40.9766C41.1042 11.0767 41.2317 11.0566 41.3515 11.0123C41.4713 10.9679 41.5811 10.9002 41.6746 10.813C41.7675 10.7152 41.8394 10.5994 41.8858 10.4727C41.9322 10.346 41.9522 10.2111 41.9445 10.0764C41.9515 9.94065 41.9312 9.80483 41.8848 9.677C41.8385 9.54917 41.767 9.43193 41.6746 9.33219C41.5829 9.24184 41.4736 9.17127 41.3536 9.12484C41.2335 9.07841 41.1052 9.05711 40.9766 9.06225H34.5366C33.8947 9.06688 33.2573 8.95584 32.6547 8.73446C32.1043 8.53217 31.5987 8.22434 31.1662 7.82824C30.7499 7.43838 30.4202 6.96541 30.1983 6.43998C29.9619 5.86545 29.8451 5.24874 29.8551 4.62754C29.8476 4.00369 29.9656 3.38471 30.2021 2.80738C30.4211 2.27572 30.7496 1.79614 31.1662 1.39984C31.5935 0.998898 32.0989 0.690397 32.6509 0.493615C33.2563 0.279364 33.8944 0.172355 34.5366 0.177401H45.6581V3.95269H34.7178C34.5928 3.94607 34.4676 3.96449 34.3497 4.00687C34.2319 4.04925 34.1237 4.11474 34.0314 4.19949C33.94 4.29566 33.8695 4.40973 33.8244 4.53451C33.7792 4.65929 33.7604 4.79207 33.7692 4.92447C33.7628 5.05607 33.7827 5.18762 33.8277 5.31144C33.8727 5.43526 33.942 5.54886 34.0314 5.64559C34.1199 5.73729 34.2268 5.80912 34.3452 5.85633C34.4635 5.90353 34.5906 5.92503 34.7178 5.91939H41.154C41.7999 5.91084 42.4419 6.02197 43.0474 6.24717C43.5963 6.45389 44.1003 6.76416 44.532 7.16111C44.9557 7.5576 45.2897 8.04015 45.5115 8.57636C45.7482 9.1443 45.8676 9.75425 45.8625 10.3695C45.8706 11.0013 45.7512 11.6282 45.5115 12.2128C45.2888 12.7508 44.955 13.2357 44.532 13.6358C44.1055 14.0404 43.6001 14.3529 43.0474 14.5536C42.4402 14.7712 41.7989 14.8783 41.154 14.8698H30.0325Z" fill="#F7F7F7"/>
<path d="M58.1104 9.46715L55.6115 4.74322L50.2513 14.8698H45.9053L53.3826 1.26101C53.5425 0.932805 53.7922 0.656738 54.1028 0.464911C54.4134 0.273083 54.7721 0.173379 55.1372 0.177393H56.0395C56.4046 0.173379 56.7633 0.273083 57.0739 0.464911C57.3845 0.656738 57.6343 0.932805 57.7942 1.26101L65.2676 14.8698H60.991L59.7763 12.61L58.1104 9.46715Z" fill="#F7F7F7"/>
<path d="M66.7324 14.8698V5.39877H80.3759V8.48379H70.6735V14.8698H66.7324Z" fill="#F7F7F7"/>
<path d="M54.4388 32.3927C53.3791 32.404 52.3262 32.2237 51.3306 31.8605C50.4321 31.5358 49.6074 31.035 48.905 30.3874C48.2149 29.7356 47.6673 28.9478 47.297 28.0736C46.8956 27.1224 46.696 26.0981 46.7108 25.0658C46.6952 24.0383 46.8949 23.0189 47.297 22.0733C47.6702 21.2008 48.2174 20.4135 48.905 19.7595C49.6088 19.0985 50.4392 18.5869 51.346 18.2556C52.3381 17.901 53.3854 17.726 54.4388 17.7388H56.5559C57.6075 17.7292 58.6524 17.9081 59.6409 18.2672C60.5478 18.5985 61.3781 19.1101 62.0819 19.7711C62.7696 20.4259 63.3178 21.2129 63.6938 22.0849C64.0925 23.0275 64.2921 24.0424 64.28 25.0658C64.2929 26.098 64.0934 27.1218 63.6938 28.0736C63.3205 28.9471 62.7719 29.7346 62.0819 30.3874C61.3763 31.0423 60.5462 31.5485 59.6409 31.8759C58.6531 32.2382 57.6079 32.4185 56.5559 32.4081L54.4388 32.3927ZM56.8258 28.5981C57.3112 28.602 57.7929 28.513 58.2449 28.3359C58.6646 28.1729 59.0474 27.9278 59.3709 27.6148C59.6912 27.2962 59.9408 26.9139 60.1036 26.4926C60.4481 25.5593 60.4481 24.5337 60.1036 23.6004C59.9381 23.1782 59.6889 22.7939 59.3709 22.4705C59.05 22.1514 58.6667 21.902 58.2449 21.7378C57.7929 21.5607 57.3112 21.4717 56.8258 21.4756H54.1688C53.6834 21.4717 53.2017 21.5607 52.7497 21.7378C52.328 21.902 51.9446 22.1514 51.6237 22.4705C51.3047 22.7945 51.0531 23.1786 50.8833 23.6004C50.6989 24.0599 50.6071 24.5514 50.6134 25.0465C50.6065 25.5406 50.6942 26.0314 50.8717 26.4926C51.0309 26.9203 51.2809 27.3084 51.6044 27.6302C51.928 27.9432 52.3108 28.1884 52.7304 28.3513C53.19 28.5301 53.6796 28.6191 54.1727 28.6135L56.8258 28.5981Z" fill="#F7F7F7"/>
<path d="M73.5547 32.3927C72.4951 32.404 71.4421 32.2237 70.4466 31.8605C69.5413 31.5331 68.7112 31.0269 68.0056 30.372C67.3156 29.7192 66.767 28.9317 66.3936 28.0582C65.9954 27.1061 65.7972 26.0823 65.8113 25.0503C65.7963 24.0233 65.9946 23.0043 66.3936 22.0579C66.7696 21.1859 67.3179 20.3989 68.0056 19.7441C68.7093 19.0831 69.5397 18.5715 70.4466 18.2402C71.4444 17.8891 72.4971 17.7193 73.5547 17.7389H80.7158V21.5103H73.2848C72.7994 21.5064 72.3177 21.5954 71.8657 21.7725C71.4439 21.9367 71.0606 22.1861 70.7397 22.5052C70.4198 22.8294 70.167 23.2133 69.9954 23.6351C69.6353 24.5655 69.6353 25.5969 69.9954 26.5273C70.1637 26.9485 70.4171 27.3305 70.7397 27.6495C71.0632 27.9625 71.446 28.2076 71.8657 28.3706C72.3177 28.5477 72.7994 28.6367 73.2848 28.6328H80.7158V32.3927H73.5547Z" fill="#F7F7F7"/>
<path d="M82.9209 32.3927V17.7388H86.8581V32.3927H82.9209ZM94.266 32.3927L88.2773 26.2226C88.1299 26.0444 88.0007 25.8519 87.8916 25.648C87.7976 25.4535 87.7513 25.2393 87.7567 25.0233V24.6801C87.7688 24.2281 87.9554 23.7984 88.2773 23.4808L94.0617 17.7195H99.1057L92.0564 24.8151L99.445 32.3927H94.266Z" fill="#F7F7F7"/>
<path d="M125.699 20.7275H121.758H116.39V17.4998H131.09V20.7275H125.699Z" fill="#F7F7F7"/>
<path d="M69.8753 0.177368H80.3759V3.32023H66.7324C66.7324 2.9075 66.8137 2.49882 66.9717 2.11751C67.1296 1.7362 67.3611 1.38973 67.6529 1.09789C67.9448 0.806049 68.2913 0.574548 68.6726 0.416604C69.0539 0.258661 69.4626 0.177368 69.8753 0.177368Z" fill="#F7F7F7"/>
<path d="M104.736 26.6083H114.689V22.9564H100.807V28.922C100.813 29.8426 101.182 30.7236 101.834 31.3735C102.486 32.0234 103.368 32.3897 104.289 32.3927H114.87V28.6135H104.736V26.6083Z" fill="#F7F7F7"/>
<path d="M103.938 17.5422C103.104 17.5422 102.305 17.8733 101.715 18.4627C101.126 19.0521 100.795 19.8515 100.795 20.685H114.87V17.5422H103.938Z" fill="#F7F7F7"/>
<path d="M125.614 32.4274V22.9564H121.839V32.4274H125.614Z" fill="#F7F7F7"/>
<path d="M44.802 21.2095C44.5298 20.5504 44.1195 19.9574 43.5988 19.4703C43.063 18.9763 42.4354 18.5924 41.7517 18.3404C40.9995 18.0603 40.2019 17.9217 39.3993 17.9316H29.6738V21.7069H39.4688C39.7118 21.7002 39.9536 21.7429 40.1796 21.8324C40.4056 21.9219 40.6112 22.0563 40.7837 22.2275C40.9622 22.408 41.1013 22.6235 41.1922 22.8605C41.2831 23.0974 41.324 23.3507 41.3121 23.6042C41.3238 23.851 41.2845 24.0976 41.1965 24.3285C41.1085 24.5593 40.9737 24.7696 40.8007 24.9459C40.6276 25.1222 40.4199 25.2609 40.1907 25.3532C39.9615 25.4455 39.7157 25.4894 39.4688 25.4822H29.6738V32.6125H33.5918V28.9721H39.3993C40.2001 28.9838 40.9965 28.8532 41.7517 28.5865C42.4374 28.3385 43.0657 27.9541 43.5988 27.4566C44.1182 26.9624 44.5281 26.3646 44.802 25.702C45.0938 24.9929 45.2394 24.2321 45.23 23.4654C45.2395 22.6924 45.094 21.9253 44.802 21.2095Z" fill="#F7F7F7"/>
<path d="M86.0144 9.06225H95.952V5.41808H82.0694V11.3799C82.0668 11.8373 82.1547 12.2906 82.328 12.7139C82.5013 13.1373 82.7565 13.5221 83.0791 13.8465C83.4016 14.1708 83.7851 14.4282 84.2074 14.6038C84.6297 14.7794 85.0826 14.8698 85.54 14.8698H96.1216V11.0714H86.0144V9.06225Z" fill="#F7F7F7"/>
<path d="M85.2199 9.46994e-06C84.8062 -0.00100606 84.3964 0.0796649 84.0139 0.237395C83.6315 0.395125 83.2839 0.626811 82.9912 0.919162C82.6985 1.21151 82.4664 1.55878 82.3082 1.94104C82.15 2.32329 82.0688 2.73303 82.0693 3.14673H96.1409V9.46994e-06H85.2199Z" fill="#F7F7F7"/>
</svg>
