<svg width="506" height="51" viewBox="0 0 506 51" fill="none" xmlns="http://www.w3.org/2000/svg">
<g clip-path="url(#clip0_1_1930)">
<path d="M29.9594 51.0001H5.02109C3.69006 50.998 2.41415 50.4729 1.47297 49.5398C0.531786 48.6068 0.0021044 47.3419 0 46.0223L0 34.355C0 34.0412 0.125754 33.7402 0.349598 33.5183C0.573442 33.2964 0.877039 33.1717 1.1936 33.1717C1.51017 33.1717 1.81376 33.2964 2.03761 33.5183C2.26145 33.7402 2.38721 34.0412 2.38721 34.355V46.0223C2.3893 46.7142 2.66748 47.3771 3.16097 47.8664C3.65446 48.3556 4.32318 48.6314 5.02109 48.6335H29.9594C30.308 48.6376 30.6539 48.5732 30.9771 48.4438C31.3004 48.3145 31.5945 48.1228 31.8425 47.8799C32.0904 47.637 32.2873 47.3478 32.4216 47.0289C32.556 46.71 32.6252 46.3679 32.6251 46.0223V5.00145C32.6283 4.65389 32.5615 4.3092 32.4286 3.98758C32.2957 3.66596 32.0993 3.37388 31.851 3.12848C31.6027 2.88308 31.3075 2.68928 30.9827 2.55846C30.6579 2.42764 30.31 2.36243 29.9594 2.36665H5.02109C4.32318 2.36873 3.65446 2.6445 3.16097 3.13373C2.66748 3.62296 2.3893 4.28591 2.38721 4.97778V8.29101C2.38721 8.60484 2.26145 8.90581 2.03761 9.12772C1.81376 9.34963 1.51017 9.4743 1.1936 9.4743C0.877039 9.4743 0.573442 9.34963 0.349598 9.12772C0.125754 8.90581 0 8.60484 0 8.29101L0 4.97778C0.0021044 3.65825 0.531786 2.39336 1.47297 1.4603C2.41415 0.52725 3.69006 0.00214243 5.02109 5.62034e-05H29.9594C30.6212 -0.00305878 31.2771 0.123338 31.8895 0.372C32.5018 0.620662 33.0587 0.9867 33.5281 1.44913C33.9975 1.91156 34.3703 2.46129 34.625 3.06681C34.8797 3.67233 35.0113 4.32173 35.0123 4.97778V45.9987C35.0145 46.6567 34.8851 47.3087 34.6319 47.9169C34.3786 48.5252 34.0063 49.0777 33.5366 49.5426C33.0669 50.0076 32.5089 50.3757 31.895 50.6259C31.281 50.876 30.6232 51.0032 29.9594 51.0001Z" fill="#F7F7F7"/>
<path d="M16.7502 31.0812H2.5941C1.90748 31.0812 1.24886 30.8113 0.762601 30.3307C0.276342 29.8502 0.0021062 29.1981 0 28.5174L0 16.1086C0 15.4265 0.273306 14.7724 0.759793 14.2901C1.24628 13.8078 1.9061 13.5369 2.5941 13.5369H16.7502C17.4382 13.5369 18.098 13.8078 18.5845 14.2901C19.071 14.7724 19.3443 15.4265 19.3443 16.1086V28.5174C19.3422 29.1981 19.068 29.8502 18.5817 30.3307C18.0955 30.8113 17.4368 31.0812 16.7502 31.0812ZM2.5941 15.9035C2.53923 15.9035 2.4866 15.9251 2.4478 15.9635C2.409 16.002 2.38721 16.0542 2.38721 16.1086V28.5174C2.38926 28.5704 2.41197 28.6206 2.45055 28.6573C2.48912 28.6941 2.54058 28.7146 2.5941 28.7146H16.7502C16.8037 28.7146 16.8552 28.6941 16.8938 28.6573C16.9324 28.6206 16.9551 28.5704 16.9571 28.5174V16.1086C16.9571 16.0542 16.9353 16.002 16.8965 15.9635C16.8577 15.9251 16.8051 15.9035 16.7502 15.9035H2.5941Z" fill="#F7F7F7"/>
<path d="M14.0766 15.9035C13.76 15.9035 13.4564 15.7789 13.2326 15.557C13.0088 15.335 12.883 15.0341 12.883 14.7202V10.3421H6.46142V14.7202C6.46142 14.8756 6.43055 15.0295 6.37057 15.1731C6.31058 15.3166 6.22266 15.4471 6.11183 15.557C6.00099 15.6668 5.86941 15.754 5.72459 15.8135C5.57978 15.8729 5.42457 15.9035 5.26782 15.9035C5.11108 15.9035 4.95586 15.8729 4.81105 15.8135C4.66623 15.754 4.53465 15.6668 4.42382 15.557C4.31298 15.4471 4.22506 15.3166 4.16508 15.1731C4.10509 15.0295 4.07422 14.8756 4.07422 14.7202V9.8924C4.07422 9.384 4.27794 8.89642 4.64057 8.53692C5.00319 8.17743 5.49502 7.97546 6.00786 7.97546H13.3366C13.8494 7.97546 14.3412 8.17743 14.7039 8.53692C15.0665 8.89642 15.2702 9.384 15.2702 9.8924V14.7202C15.2702 15.0341 15.1445 15.335 14.9206 15.557C14.6968 15.7789 14.3932 15.9035 14.0766 15.9035Z" fill="#F7F7F7"/>
<path d="M26.9515 44.0659H8.03686C7.7203 44.0659 7.4167 43.9413 7.19286 43.7194C6.96902 43.4974 6.84326 43.1965 6.84326 42.8826C6.84326 42.5688 6.96902 42.2678 7.19286 42.0459C7.4167 41.824 7.7203 41.6993 8.03686 41.6993H26.9515C27.268 41.6993 27.5716 41.824 27.7955 42.0459C28.0193 42.2678 28.1451 42.5688 28.1451 42.8826C28.1451 43.1965 28.0193 43.4974 27.7955 43.7194C27.5716 43.9413 27.268 44.0659 26.9515 44.0659Z" fill="#F7F7F7"/>
<path d="M47.4896 45.407V35.6724H75.778C76.116 35.689 76.4537 35.6342 76.7687 35.5115C77.0837 35.3889 77.3688 35.2012 77.6051 34.961C77.8414 34.7208 78.0235 34.4335 78.1392 34.1182C78.255 33.803 78.3018 33.4669 78.2766 33.1323C78.2963 32.7837 78.2443 32.4347 78.124 32.1066C78.0036 31.7784 77.8173 31.4779 77.5763 31.2233C77.3418 30.9898 77.0607 30.8075 76.7511 30.688C76.4414 30.5684 76.11 30.5143 75.778 30.5291H59.1312C57.4722 30.5434 55.8246 30.2573 54.2692 29.685C52.8459 29.1754 51.5393 28.3896 50.4258 27.3736C49.3488 26.3729 48.4973 25.1578 47.9272 23.8079C47.3074 22.3425 46.9986 20.7662 47.0201 19.1773C46.9994 17.5783 47.3081 15.9918 47.9272 14.5151C48.4945 13.1477 49.3458 11.9139 50.4258 10.8942C51.5327 9.86773 52.8411 9.07824 54.2692 8.57499C55.831 8.03265 57.4765 7.76566 59.1312 7.78613H87.8811V17.4339H59.5927C59.2593 17.4064 58.9239 17.4522 58.6106 17.5683C58.2972 17.6844 58.0136 17.8677 57.7801 18.1052C57.5466 18.3427 57.369 18.6285 57.2601 18.942C57.1511 19.2556 57.1134 19.5892 57.1498 19.9188C57.1166 20.6001 57.357 21.2666 57.8182 21.7727C58.0482 22.0055 58.3251 22.1876 58.6308 22.3072C58.9366 22.4268 59.2643 22.4812 59.5927 22.4669H76.2395C77.92 22.4424 79.5904 22.7287 81.1651 23.311C82.5899 23.8432 83.8957 24.6473 85.0085 25.6775C86.0982 26.6848 86.9583 27.9112 87.531 29.2748C88.1401 30.7479 88.438 32.3293 88.4063 33.9212C88.432 35.5437 88.1234 37.1543 87.4991 38.6543C86.9237 40.0345 86.0615 41.2789 84.9687 42.3068C83.8685 43.3532 82.5592 44.1594 81.1253 44.6734C79.5575 45.2241 77.9026 45.4913 76.2395 45.4622L47.4896 45.407Z" fill="#F7F7F7"/>
<path d="M120.068 31.5545L113.607 19.4534L99.7534 45.4069H88.5176L107.846 10.5392C108.254 9.69344 108.898 8.9815 109.702 8.4879C110.506 7.9943 111.436 7.73976 112.382 7.75451H114.713C115.659 7.74073 116.588 7.99567 117.392 8.48916C118.196 8.98265 118.84 9.69405 119.249 10.5392L138.577 45.4069H127.517L124.373 39.6167L120.068 31.5545Z" fill="#F7F7F7"/>
<path d="M142.357 45.407V21.0942H177.624V28.9829H152.542V45.407H142.357Z" fill="#F7F7F7"/>
<path d="M307.878 45.4069C305.14 45.4355 302.42 44.9731 299.849 44.0422C297.508 43.2012 295.36 41.9058 293.531 40.232C291.743 38.5593 290.326 36.5365 289.369 34.2918C288.336 31.8558 287.821 29.2347 287.857 26.5925C287.818 23.9577 288.333 21.3436 289.369 18.9169C290.338 16.6789 291.754 14.6583 293.531 12.9767C295.354 11.285 297.503 9.97558 299.849 9.12709C302.42 8.19615 305.14 7.73381 307.878 7.76235H313.352C316.066 7.73891 318.762 8.20123 321.31 9.12709C323.653 9.97555 325.8 11.285 327.62 12.9767C329.413 14.6592 330.843 16.6856 331.821 18.9327C332.857 21.3594 333.372 23.9734 333.333 26.6083C333.369 29.2505 332.854 31.8716 331.821 34.3076C330.856 36.5487 329.43 38.5662 327.636 40.232C325.81 41.9084 323.664 43.2065 321.326 44.0501C318.778 44.9759 316.082 45.4382 313.368 45.4148L307.878 45.4069ZM314.045 35.6723C315.299 35.6848 316.544 35.4599 317.713 35.0097C318.802 34.5858 319.793 33.947 320.625 33.1322C321.454 32.3216 322.1 31.3455 322.519 30.2686C323.41 27.8758 323.41 25.2461 322.519 22.8533C322.096 21.7691 321.451 20.7834 320.625 19.9582C319.798 19.1345 318.806 18.4922 317.713 18.0728C316.544 17.6226 315.299 17.3977 314.045 17.4101H307.154C305.902 17.3985 304.66 17.6234 303.493 18.0728C302.4 18.4922 301.408 19.1345 300.581 19.9582C299.756 20.7934 299.112 21.7865 298.687 22.877C298.207 24.0544 297.969 25.3149 297.987 26.5846C297.972 27.8513 298.198 29.1093 298.655 30.2923C299.075 31.3621 299.72 32.3305 300.549 33.1322C301.382 33.9366 302.37 34.567 303.453 34.986C304.641 35.4383 305.905 35.6631 307.177 35.6487L314.045 35.6723Z" fill="#F7F7F7"/>
<path d="M357.285 45.407C354.548 45.4355 351.828 44.9732 349.256 44.0423C346.923 43.2001 344.783 41.9048 342.962 40.232C341.174 38.5594 339.757 36.5366 338.8 34.2919C337.767 31.8559 337.253 29.2348 337.288 26.5926C337.249 23.9578 337.764 21.3437 338.8 18.917C339.768 16.6761 341.184 14.6528 342.962 12.9689C344.784 11.2754 346.933 9.96582 349.28 9.11929C351.844 8.19116 354.556 7.72886 357.285 7.75456H375.794V17.4339H356.593C355.339 17.4222 354.094 17.6471 352.924 18.0965C351.835 18.5179 350.845 19.1601 350.02 19.9819C349.189 20.8096 348.534 21.7941 348.094 22.8771C347.171 25.2641 347.171 27.9053 348.094 30.2924C348.534 31.3594 349.189 32.3259 350.02 33.1323C350.853 33.9367 351.841 34.5671 352.924 34.9861C354.094 35.4356 355.339 35.6604 356.593 35.6488H375.802V45.407H357.285Z" fill="#F7F7F7"/>
<path d="M381.507 45.407V7.75452H391.693V45.407H381.507ZM410.838 45.407L395.353 29.5902C394.95 29.1399 394.6 28.6449 394.311 28.1151C394.065 27.6256 393.945 27.0838 393.961 26.5373V25.5986C393.991 24.4432 394.47 23.344 395.297 22.5299L410.257 7.75452H423.331L405.077 25.9457L424.222 45.407H410.838Z" fill="#F7F7F7"/>
<path d="M492.083 15.4144H481.897H467.988V7.31274H506V15.4144H492.083Z" fill="#F7F7F7"/>
<path d="M150.481 7.75452H177.632V15.7773H142.357C142.365 13.6466 143.225 11.6061 144.748 10.1024C146.27 8.59874 148.332 7.7545 150.481 7.75452Z" fill="#F7F7F7"/>
<path d="M437.901 35.6724V30.5212H463.627V21.181H427.716V36.4613C427.716 38.8339 428.666 41.1092 430.359 42.7869C432.051 44.4645 434.346 45.407 436.739 45.407H464.089V35.6724H437.901Z" fill="#F7F7F7"/>
<path d="M435.84 7.31274H464.097V15.3591H427.716C427.718 13.2244 428.575 11.1778 430.098 9.669C431.621 8.16023 433.687 7.31274 435.84 7.31274Z" fill="#F7F7F7"/>
<path d="M491.868 45.4542V21.1809H482.112V45.4542H491.868Z" fill="#F7F7F7"/>
<path d="M282.971 16.6765C282.267 14.9857 281.203 13.4654 279.852 12.2195C278.467 10.9541 276.845 9.97043 275.078 9.32434C273.131 8.60589 271.067 8.25019 268.99 8.27515H243.861V17.9545H269.173C269.802 17.9368 270.427 18.0451 271.013 18.2728C271.598 18.5005 272.131 18.843 272.579 19.2798C273.04 19.7438 273.4 20.2972 273.635 20.9053C273.871 21.5134 273.977 22.1632 273.948 22.8139C273.977 23.4467 273.873 24.0786 273.645 24.67C273.416 25.2615 273.067 25.7998 272.618 26.2514C272.17 26.703 271.633 27.0582 271.04 27.2947C270.448 27.5312 269.812 27.644 269.173 27.626H243.861V45.9276H253.983V36.6032H268.998C271.072 36.6267 273.134 36.2821 275.086 35.5856C276.86 34.9546 278.485 33.9692 279.86 32.6905C281.209 31.4299 282.272 29.9 282.979 28.2018C283.728 26.3821 284.102 24.432 284.078 22.4668C284.102 20.4829 283.726 18.5142 282.971 16.6765Z" fill="#F7F7F7"/>
<path d="M192.202 35.6724V30.5212H217.928V21.181H182.016V36.4613C182.016 38.8339 182.967 41.1092 184.659 42.7869C186.352 44.4645 188.647 45.407 191.04 45.407H218.397V35.6724H192.202Z" fill="#F7F7F7"/>
<path d="M190.181 7.31272H218.437V15.3591H182.016C182.017 14.2988 182.23 13.249 182.641 12.2702C183.052 11.2913 183.654 10.4026 184.413 9.65499C185.171 8.9074 186.071 8.31566 187.061 7.91371C188.051 7.51176 189.111 7.30753 190.181 7.31272Z" fill="#F7F7F7"/>
</g>
<defs>
<clipPath id="clip0_1_1930">
<rect width="506" height="51" fill="white"/>
</clipPath>
</defs>
</svg>
