<svg width="24" height="24" viewBox="0 0 24 24" fill="none" xmlns="http://www.w3.org/2000/svg">
<path d="M12 1C15.025 1 17.5 3.4497 17.5 6.44379C17.5 9.43787 15.025 11.8876 12 11.8876C8.975 11.8876 6.5 9.43787 6.5 6.44379C6.5 3.4497 8.975 1 12 1ZM17.5 13.7929C17.5 15.2899 17.0875 18.5562 14.475 22.3669L13.375 15.8343L14.6125 13.2485C13.7875 13.2485 12.9625 13.1124 12 13.1124C11.0375 13.1124 10.2125 13.2485 9.3875 13.2485L10.625 15.8343L9.525 22.3669C6.9125 18.6923 6.5 15.2899 6.5 13.7929C3.2 14.7456 1 16.5148 1 18.5562V24H23V18.5562C23 16.5148 20.8 14.7456 17.5 13.7929Z" fill="#F7F7F7"/>
</svg>
