<svg width="98" height="25" viewBox="0 0 98 25" fill="none" xmlns="http://www.w3.org/2000/svg">
<path d="M13.7496 0H2.30114C1.69504 0.00375309 1.11482 0.246193 0.686231 0.674783C0.257641 1.10337 0.0152015 1.68359 0.0114485 2.28969V3.82093C0.0114485 3.96591 0.0690433 4.10496 0.171563 4.20748C0.274082 4.30999 0.413128 4.36759 0.558113 4.36759C0.703097 4.36759 0.842143 4.30999 0.944663 4.20748C1.04718 4.10496 1.10478 3.96591 1.10478 3.82093V2.28969C1.10849 1.97355 1.23573 1.6714 1.45929 1.44784C1.68285 1.22428 1.985 1.09704 2.30114 1.09333H13.7496C14.0662 1.0963 14.3691 1.22321 14.5933 1.44685C14.8175 1.67049 14.9451 1.97306 14.9488 2.28969V22.0841C14.9488 22.4029 14.8228 22.7089 14.5981 22.9351C14.3735 23.1614 14.0684 23.2896 13.7496 23.2919H2.30114C1.98104 23.2911 1.67427 23.1637 1.44792 22.9373C1.22158 22.711 1.09408 22.4042 1.09333 22.0841V15.879C1.09333 15.734 1.03573 15.595 0.933214 15.4925C0.830695 15.39 0.691649 15.3324 0.546664 15.3324C0.40168 15.3324 0.262634 15.39 0.160114 15.4925C0.0575948 15.595 0 15.734 0 15.879V22.0841C0.0044937 22.69 0.247171 23.2698 0.675602 23.6982C1.10403 24.1266 1.68382 24.3693 2.28969 24.3738H13.7496C14.3555 24.3693 14.9353 24.1266 15.3637 23.6982C15.7921 23.2698 16.0348 22.69 16.0393 22.0841V2.28969C16.0355 1.68359 15.7931 1.10337 15.3645 0.674783C14.9359 0.246193 14.3557 0.00375309 13.7496 0Z" fill="#F7F7F7"/>
<path d="M1.19909 14.3678H7.68751C7.84421 14.3689 7.99959 14.339 8.14469 14.2798C8.28979 14.2207 8.42175 14.1333 8.53295 14.0229C8.64416 13.9125 8.73242 13.7812 8.79265 13.6365C8.85288 13.4919 8.88388 13.3367 8.88388 13.18V7.44146C8.88388 7.12644 8.75874 6.82432 8.53598 6.60157C8.31323 6.37882 8.01112 6.25368 7.6961 6.25368H7.00919V4.57934C7.00843 4.34452 6.91462 4.11958 6.74831 3.9538C6.582 3.78803 6.35675 3.69495 6.12193 3.69495H2.76467C2.52985 3.69495 2.30461 3.78803 2.1383 3.9538C1.97199 4.11958 1.87817 4.34452 1.87742 4.57934V6.26799H1.19909C0.88654 6.26797 0.586573 6.39114 0.364228 6.61081C0.141883 6.83047 0.0150824 7.12892 0.0113167 7.44146V13.1657C0.0094228 13.3229 0.0387473 13.4789 0.0975902 13.6246C0.156433 13.7704 0.243624 13.903 0.354109 14.0148C0.464593 14.1267 0.596173 14.2154 0.741222 14.276C0.886271 14.3366 1.0419 14.3678 1.19909 14.3678ZM2.97361 4.77969H5.91586V6.2594H2.97361V4.77969ZM1.10465 7.44146C1.10465 7.41641 1.1146 7.39238 1.13231 7.37467C1.15002 7.35696 1.17405 7.34701 1.19909 7.34701H7.68751C7.71256 7.34701 7.73659 7.35696 7.7543 7.37467C7.77201 7.39238 7.78196 7.41641 7.78196 7.44146V13.1657C7.78196 13.1907 7.77201 13.2148 7.7543 13.2325C7.73659 13.2502 7.71256 13.2601 7.68751 13.2601H1.19909C1.17405 13.2601 1.15002 13.2502 1.13231 13.2325C1.1146 13.2148 1.10465 13.1907 1.10465 13.1657V7.44146Z" fill="#F7F7F7"/>
<path d="M3.16016 19.9032C3.16016 20.0482 3.21775 20.1873 3.32027 20.2898C3.42279 20.3923 3.56184 20.4499 3.70682 20.4499H12.3619C12.5068 20.4499 12.6459 20.3923 12.7484 20.2898C12.8509 20.1873 12.9085 20.0482 12.9085 19.9032C12.9085 19.7582 12.8509 19.6192 12.7484 19.5167C12.6459 19.4142 12.5068 19.3566 12.3619 19.3566H3.69251C3.55026 19.361 3.41528 19.4205 3.31598 19.5224C3.21669 19.6244 3.16083 19.7609 3.16016 19.9032Z" fill="#F7F7F7"/>
<path d="M22.2903 11.0364V8.2172H30.413C30.5077 8.22116 30.6023 8.20624 30.6913 8.17332C30.7802 8.1404 30.8617 8.09013 30.931 8.02544C31 7.95284 31.0534 7.86688 31.0878 7.77286C31.1223 7.67883 31.1371 7.57875 31.1314 7.47877C31.1366 7.37798 31.1215 7.27718 31.0871 7.1823C31.0527 7.08743 30.9996 7.00041 30.931 6.92638C30.863 6.85933 30.7819 6.80695 30.6928 6.77249C30.6037 6.73803 30.5084 6.72222 30.413 6.72603H25.6333C25.1568 6.72947 24.6837 6.64706 24.2365 6.48275C23.828 6.33261 23.4527 6.10414 23.1318 5.81016C22.8228 5.5208 22.578 5.16977 22.4134 4.7798C22.2379 4.35338 22.1512 3.89565 22.1586 3.4346C22.1531 2.97158 22.2407 2.51217 22.4162 2.08368C22.5788 1.68909 22.8226 1.33314 23.1318 1.03901C23.4489 0.741432 23.824 0.512463 24.2337 0.366412C24.683 0.207395 25.1566 0.127973 25.6333 0.131718H33.8876V2.93373H25.7678C25.6749 2.92882 25.5821 2.94249 25.4946 2.97394C25.4071 3.0054 25.3268 3.054 25.2583 3.11691C25.1905 3.18828 25.1381 3.27294 25.1046 3.36555C25.0711 3.45817 25.0572 3.55672 25.0637 3.65498C25.0589 3.75265 25.0737 3.85029 25.1071 3.94219C25.1405 4.03409 25.1919 4.1184 25.2583 4.1902C25.324 4.25826 25.4033 4.31157 25.4912 4.34661C25.579 4.38164 25.6733 4.3976 25.7678 4.39341H30.5446C31.0241 4.38706 31.5005 4.46955 31.9499 4.63669C32.3573 4.79011 32.7314 5.0204 33.0519 5.31501C33.3663 5.60929 33.6142 5.96744 33.7788 6.36541C33.9545 6.78693 34.0431 7.23964 34.0393 7.69629C34.0453 8.16519 33.9567 8.63049 33.7788 9.06438C33.6135 9.46365 33.3658 9.82353 33.0519 10.1205C32.7352 10.4208 32.3601 10.6527 31.9499 10.8017C31.4993 10.9632 31.0233 11.0427 30.5446 11.0364H22.2903Z" fill="#F7F7F7"/>
<path d="M43.1294 7.02652L41.2747 3.52042L37.2964 11.0363H34.0708L39.6204 0.935933C39.7391 0.692344 39.9245 0.487447 40.155 0.345073C40.3856 0.202699 40.6518 0.128699 40.9227 0.131678H41.5924C41.8634 0.128699 42.1296 0.202699 42.3601 0.345073C42.5907 0.487447 42.776 0.692344 42.8947 0.935933L48.4415 11.0363H45.2674L44.3658 9.35914L43.1294 7.02652Z" fill="#F7F7F7"/>
<path d="M49.5288 11.0363V4.00696H59.655V6.29665H52.4539V11.0363H49.5288Z" fill="#F7F7F7"/>
<path d="M40.4043 24.0418C39.6178 24.0502 38.8363 23.9164 38.0974 23.6468C37.4305 23.4059 36.8185 23.0342 36.2971 22.5535C35.7849 22.0697 35.3785 21.485 35.1036 20.8362C34.8057 20.1302 34.6576 19.37 34.6686 18.6038C34.657 17.8412 34.8052 17.0846 35.1036 16.3828C35.3807 15.7352 35.7868 15.1509 36.2971 14.6655C36.8195 14.1749 37.4358 13.7952 38.1089 13.5493C38.8452 13.2861 39.6224 13.1563 40.4043 13.1658H41.9756C42.7561 13.1586 43.5316 13.2914 44.2653 13.5579C44.9384 13.8038 45.5547 14.1835 46.077 14.6741C46.5874 15.1601 46.9943 15.7442 47.2734 16.3914C47.5693 17.091 47.7174 17.8442 47.7084 18.6038C47.718 19.3699 47.5699 20.1298 47.2734 20.8362C46.9963 21.4845 46.5891 22.069 46.077 22.5535C45.5533 23.0396 44.9372 23.4153 44.2653 23.6583C43.5322 23.9271 42.7564 24.0609 41.9756 24.0533L40.4043 24.0418ZM42.1759 21.2255C42.5362 21.2284 42.8937 21.1623 43.2292 21.0309C43.5406 20.9099 43.8248 20.728 44.0649 20.4956C44.3026 20.2592 44.4879 19.9755 44.6087 19.6628C44.8644 18.9701 44.8644 18.2089 44.6087 17.5162C44.4859 17.2028 44.3009 16.9176 44.0649 16.6776C43.8267 16.4408 43.5422 16.2556 43.2292 16.1338C42.8937 16.0023 42.5362 15.9363 42.1759 15.9392H40.2039C39.8436 15.9363 39.4861 16.0023 39.1507 16.1338C38.8377 16.2556 38.5531 16.4408 38.3149 16.6776C38.0782 16.9181 37.8914 17.2031 37.7654 17.5162C37.6285 17.8572 37.5604 18.222 37.5651 18.5895C37.56 18.9562 37.6251 19.3205 37.7568 19.6628C37.875 19.9802 38.0605 20.2682 38.3006 20.5071C38.5408 20.7394 38.8249 20.9214 39.1364 21.0423C39.4774 21.175 39.8408 21.2411 40.2068 21.2369L42.1759 21.2255Z" fill="#F7F7F7"/>
<path d="M54.592 24.0418C53.8055 24.0502 53.024 23.9164 52.2851 23.6469C51.6132 23.4039 50.9971 23.0281 50.4734 22.5421C49.9613 22.0576 49.5541 21.4731 49.277 20.8248C48.9814 20.1182 48.8343 19.3583 48.8448 18.5924C48.8337 17.8301 48.9808 17.0738 49.277 16.3714C49.5561 15.7242 49.963 15.1401 50.4734 14.6541C50.9957 14.1635 51.612 13.7838 52.2851 13.5379C53.0257 13.2773 53.807 13.1513 54.592 13.1658H59.9069V15.965H54.3916C54.0313 15.9621 53.6738 16.0281 53.3383 16.1596C53.0253 16.2814 52.7408 16.4665 52.5026 16.7034C52.2653 16.944 52.0776 17.2289 51.9502 17.542C51.683 18.2325 51.683 18.998 51.9502 19.6886C52.0752 20.0012 52.2632 20.2847 52.5026 20.5214C52.7427 20.7537 53.0269 20.9357 53.3383 21.0567C53.6738 21.1881 54.0313 21.2542 54.3916 21.2513H59.9069V24.0418H54.592Z" fill="#F7F7F7"/>
<path d="M61.5439 24.0417V13.1657H64.4662V24.0417H61.5439ZM69.9643 24.0417L65.5194 19.4623C65.4101 19.3301 65.3142 19.1872 65.2332 19.0359C65.1634 18.8915 65.129 18.7325 65.133 18.5722V18.3175C65.1421 17.982 65.2805 17.663 65.5194 17.4274L69.8126 13.1514H73.5562L68.3243 18.4177L73.8081 24.0417H69.9643Z" fill="#F7F7F7"/>
<path d="M93.2934 15.3839H90.3683H86.3843V12.9883H97.2947V15.3839H93.2934Z" fill="#F7F7F7"/>
<path d="M51.8614 0.131592H59.655V2.46422H49.5288C49.5288 2.15789 49.5891 1.85457 49.7064 1.57156C49.8236 1.28855 49.9954 1.03141 50.212 0.814802C50.4286 0.598198 50.6858 0.426378 50.9688 0.309152C51.2518 0.191927 51.5551 0.131592 51.8614 0.131592Z" fill="#F7F7F7"/>
<path d="M77.7353 19.7486H85.1225V17.0382H74.8188V21.4659C74.8234 22.1492 75.0974 22.803 75.5813 23.2854C76.0653 23.7677 76.7201 24.0396 77.4033 24.0418H85.257V21.2369H77.7353V19.7486Z" fill="#F7F7F7"/>
<path d="M77.1427 13.0198C76.524 13.0198 75.9307 13.2655 75.4933 13.703C75.0558 14.1404 74.8101 14.7337 74.8101 15.3524H85.2568V13.0198H77.1427Z" fill="#F7F7F7"/>
<path d="M93.2305 24.0676V17.0382H90.4285V24.0676H93.2305Z" fill="#F7F7F7"/>
<path d="M33.252 15.7416C33.05 15.2525 32.7455 14.8124 32.359 14.4508C31.9614 14.0842 31.4956 13.7993 30.9881 13.6122C30.4298 13.4043 29.8379 13.3015 29.2422 13.3088H22.0239V16.1109H29.2937C29.4741 16.1059 29.6535 16.1376 29.8213 16.204C29.9891 16.2704 30.1416 16.3702 30.2697 16.4972C30.4021 16.6312 30.5054 16.7912 30.5729 16.967C30.6403 17.1429 30.6706 17.3308 30.6618 17.519C30.6705 17.7022 30.6413 17.8852 30.576 18.0566C30.5107 18.2279 30.4107 18.3839 30.2822 18.5148C30.1538 18.6457 29.9997 18.7486 29.8296 18.8171C29.6594 18.8856 29.477 18.9182 29.2937 18.9129H22.0239V24.2049H24.9318V21.5031H29.2422C29.8365 21.5117 30.4276 21.4148 30.9881 21.2169C31.497 21.0328 31.9634 20.7475 32.359 20.3783C32.7445 20.0114 33.0487 19.5678 33.252 19.076C33.4686 18.5497 33.5766 17.9851 33.5697 17.416C33.5768 16.8422 33.4687 16.2729 33.252 15.7416Z" fill="#F7F7F7"/>
<path d="M63.8391 6.72594H71.2148V4.02124H60.9112V8.44607C60.9093 8.78555 60.9745 9.12205 61.1031 9.43622C61.2317 9.7504 61.4212 10.0361 61.6606 10.2768C61.8999 10.5175 62.1845 10.7085 62.498 10.8388C62.8115 10.9692 63.1476 11.0363 63.4871 11.0363H71.3407V8.2171H63.8391V6.72594Z" fill="#F7F7F7"/>
<path d="M63.2495 7.02857e-06C62.9424 -0.000746695 62.6383 0.0591271 62.3544 0.176194C62.0706 0.293261 61.8126 0.465218 61.5954 0.6822C61.3781 0.899183 61.2058 1.15692 61.0884 1.44063C60.971 1.72435 60.9108 2.02845 60.9111 2.33549H71.355V7.02857e-06H63.2495Z" fill="#F7F7F7"/>
</svg>
