<svg width="31" height="35" viewBox="0 0 31 35" fill="none" xmlns="http://www.w3.org/2000/svg">
<path d="M15.5 0C19.7819 0 23.25 3.48056 23.25 7.77778C23.25 12.075 19.7819 15.5556 15.5 15.5556C11.2181 15.5556 7.75 12.075 7.75 7.77778C7.75 3.48056 11.2181 0 15.5 0ZM23.25 20.4944C23.25 22.5556 22.7075 27.3583 19.0069 32.725L17.4375 23.3333L19.2587 19.6778C18.0575 19.5417 16.7981 19.4444 15.5 19.4444C14.2019 19.4444 12.9425 19.5417 11.7413 19.6778L13.5625 23.3333L11.9931 32.725C8.2925 27.3583 7.75 22.5556 7.75 20.4944C3.11937 21.8556 0 24.3056 0 27.2222V35H31V27.2222C31 24.3056 27.9 21.8556 23.25 20.4944Z" fill="#F7F7F7"/>
</svg>
